<?xml version="1.0" encoding="utf-8"?>
<!-- Generator: Adobe Illustrator 15.1.0, SVG Export Plug-In . SVG Version: 6.00 Build 0)  -->
<!DOCTYPE svg PUBLIC "-//W3C//DTD SVG 1.1//EN" "http://www.w3.org/Graphics/SVG/1.1/DTD/svg11.dtd">
<svg version="1.1" id="Layer_1" xmlns="http://www.w3.org/2000/svg" xmlns:xlink="http://www.w3.org/1999/xlink" x="0px" y="0px"
	 width="595.28px" height="841.89px" viewBox="0 0 595.28 841.89" enable-background="new 0 0 595.28 841.89" xml:space="preserve">
<g>
	<path fill-rule="evenodd" clip-rule="evenodd" d="M227.514,139.125c-8.981-5.731-22.476-6.948-28.755-15.38
		c11.932,0.233,22.148,7.627,30.761,13.374c8.619-9.261,17.226-48.198-8.024-42.129c-10.29,2.473-18.396,22.162-26.08,30.761
		c-8.097,9.06-16.853,23.668-26.08,30.092c-2.788,1.941-5.151,1.883-7.356,3.344c-6.074,4.023-9.692,9.839-11.368,16.718
		c-0.617,2.533,0.266,6.02-0.668,9.362c-0.711,2.541-3.219,4.635-4.013,6.687c-5.926,15.335-8.602,29.952-16.048,43.466
		c-6.795,12.331-13.563,25.934-22.737,36.779c-14.841,17.548-26.858,29.281-34.773,54.165c-2.257,7.099-3.015,15.464-6.018,23.405
		c-4.969,13.139-16.64,25.985-25.411,37.448c-9.675,12.646-20.293,23.992-31.429,31.429c6.448-12.254,18.015-22.128,27.417-34.104
		c4.171-5.31,8.684-11.798,13.374-18.055c4.466-5.956,10.71-12.572,12.706-18.724c2.735-8.428,3.334-18.369,6.019-26.749
		c7.856-24.52,24.051-37.695,39.454-56.839c13.726-17.06,24.149-41.727,32.098-64.865c2.661-7.745,6.457-16.403,8.025-24.073
		c0.542-2.653-0.245-5.023,0.668-7.356c2.133-5.448,10.268-9.64,16.718-14.712c5.374-4.225,10.81-11.748,16.718-18.724
		c5.415-6.394,12.387-12.126,16.718-18.055c8.496-11.63,11.865-27.727,33.435-25.411c14.452,5.885,20.871,28.214,16.049,47.479
		c-7.083,28.297-29.892,56.122-44.804,72.221c-1.407,15.463-2.703,30.905-3.344,45.472c-0.178,4.052-1.749,8.969-0.668,13.374
		c1.833,7.481,15.052,16.828,20.729,22.067c8.045,7.425,15.525,14.276,24.074,18.723c17.394-3.113,25.093-15.92,46.142-15.379
		c5.415-9.074,5.855-23.121,12.705-30.76c-1.763-7.62,2.976-17.037,2.675-23.405c-0.324-6.868-7.544-16.9-6.688-28.085
		c1.004-13.101,8.792-26.511,15.381-34.104c1.986-2.291,11.032-10.747,17.385-8.025c6.333,2.713,5.184,19.715,4.683,30.761
		c-0.975,21.463,5.468,43.527,7.355,60.853c2.315,21.246-10.752,36.105-14.712,52.828c4.398,4.295,10.812,6.574,14.712,11.368
		c10.97-11.321,19.849-24.732,37.447-29.423c0.587-15.765,4.771-33.509,12.038-44.803c-4.477-15.598-5.2-39.148,3.342-54.834
		c4.469-8.204,20.125-29.106,30.762-18.724c7.308,7.133,2.206,28.846,2.675,43.466c0.277,8.66,3.587,18.185,3.343,26.08
		c-0.362,11.841-5.108,23.857-7.355,34.104c-2.609,11.907-5.287,22.559-7.356,33.435c5.104-2.962,4.35-9.815,6.02-14.712
		c4.749-13.918,12.763-28.705,22.735-38.115c-3.851-21.106,10.922-52.921,24.743-64.865c6.927-5.985,28.087-13.924,30.093,0.669
		c0.703,5.119-5.564,17.062-8.026,24.742c-2.491,7.78-5.324,18.798-6.017,26.749c-0.659,7.542,0.497,14.643-0.67,20.729
		c-0.975,5.091-4.905,11.343-7.355,16.718c-4.877,10.697-9.312,22.023-14.043,34.104c-2.25,5.744-3.46,13.758-6.019,17.386
		c-3.536,5.017-11.673,8.347-16.718,12.037c-6.115,4.473-11.979,7.674-16.719,12.037c8.598,9.322,20.138,1.055,32.769-2.675
		c7.696-2.271,16.13-4.637,24.072-5.35c6.005-0.538,11.985,0.948,18.055-0.669c6.899-1.835,11.483-8.036,17.388-10.699
		c5.768-2.601,13.439-5.796,21.398-6.687c17.312-1.936,43.273,3.762,43.467,18.055c0.124,9.198-11.748,12.792-20.062,16.048
		c-4.529,1.774-8.66,3.774-12.706,6.019c-8.112,4.503-14.771,11.33-22.067,15.38c-10.139,5.629-28.596,6.691-43.467,11.368
		c-6.625,2.084-12.676,5.191-18.723,8.025c-10.81,5.069-16.809,12.457-33.437,10.699c-6.487-0.686-12.963-3.812-19.393-5.35
		c-6.922-1.653-13.638-3.005-20.729-4.012c-21.379-3.035-53.104-11.349-73.559-2.675c-3.485,1.479-6.374,4.978-10.699,6.688
		c-11.841,4.684-29.218,3.542-45.473,3.344c-17.617-0.215-34.572,2.496-51.49,8.024c-8.176,2.672-16.191,4.527-24.074,6.018
		c-9.107,1.726-18.238,1.078-26.749,2.675c-15.872,2.981-32.841,21.147-42.129,32.099c-10.285,12.129-18.598,24.803-30.092,35.442
		c-0.758,0.702-2.402,3.304-4.012,2.005c18.014-27.68,36.474-54.914,67.54-69.546c-3.604-1.298-8.065-1.74-11.368-3.343
		c4.756-2.933,10.102-0.878,14.712-0.669c33.35,1.516,59.923-14.487,94.288-16.049c21.316-0.968,49.521,3.666,62.858-6.688
		c-10.282-0.809-19.92-5.578-30.092-8.024c-10.179-2.448-21.776-1.595-30.76-6.688c7.396-1.588,14.096,2.28,20.73,2.675
		c2.208,0.131,4.439-0.988,6.687-0.669c12.616,1.791,23.131,10.715,36.779,10.031c11.142-0.558,21.954-6.474,36.778-5.35
		c13.613,1.033,27.612,3.938,40.792,6.018c13.312,2.103,24.379,7.621,36.11,10.699c16.092,4.226,26.297-6.494,37.448-11.368
		c7.054-3.083,14.133-6.829,21.398-8.693c11.353-2.913,25.429-3.043,35.442-8.025c8.54-4.249,15.388-11.983,24.072-16.718
		c-0.489-3.3-1.915-5.662-1.337-10.03c6.202-6.948,23.383-15.878,33.435-6.688c1.341-4.741-2.419-9.383-5.349-11.368
		c-19.038-12.89-55.654-3.908-68.878,9.362c-1.408,1.488,0.705,3.225,0,6.018c-3.013-0.108-2.454-3.786-5.351-4.012
		c-22.91-1.005-41.277,6.354-58.177,13.374c-2.418,3.825-1.31,11.172-4.012,14.712c-2.576-2.103-0.821-8.539-1.337-12.705
		c-24.86-10.357-51.535-18.902-83.59-22.067c-1.115,5.126-2.642,9.841-5.349,13.374c-0.734-4.326,1.959-10.598,1.337-15.381
		c-26.425-26.18-90.354-14.854-117.693-40.122c1.611-0.273,1.454,1.223,3.344,0.668c-15.038-14.607-36.732-28.354-47.479-49.484
		c2.629-3.117,4.962,5.159,8.024,6.018c-0.442-21.84,0.124-42.673,4.681-59.515c22.42-22.407,63.937-70.188,36.11-109.668
		c-0.542-0.127-0.667-0.671-1.337-0.669C247.234,109.066,238.329,132.289,227.514,139.125z M340.525,264.174
		c-0.469-12.348-5.18-25.966-6.018-39.454c-0.895-14.385,0.607-25.157,0.669-38.117c0.067-14.323-6.324-16.95-15.38-9.362
		c-13.858,11.61-25.148,45.734-8.694,61.521c4.071-1.422,13.129-2.686,15.38,1.337c-2.815,4.356-11.692-0.693-16.717,2.007
		c-2.296,4.613-1.004,12.816-1.338,19.392c8.758-1.957,22.681-1.393,26.749,5.35c-9.971,2.658-18.209-3.186-26.081,0
		c-6.954,2.814-7.815,13.617-10.698,20.729c-1.455,3.589-4.229,5.382-4.013,8.693c4.765,1.334,12.225,3.269,10.701,8.692
		c-19.062-12.406-37.549,3.262-53.497,9.362c25.278,12.871,64.351,8.989,88.938,22.736c5.156,2.882,7.296,8.229,13.374,9.362
		c-3.702-23.268-33.83-23.677-44.134-38.117c7.377,0.426,11.259,4.344,17.387,6.019C329.075,296.97,341.274,283.902,340.525,264.174
		z M423.446,273.536c1.429-8.462,6.12-16.595,6.688-25.411c0.469-7.282-2.688-16.111-2.677-24.743
		c0.021-13.487,3.89-27.896,1.339-39.453c-0.808-3.657-7.159-7.529-11.368-5.35c-18.349,9.5-29.216,45.182-21.399,71.552
		c5.02-2.414,17.852-5.176,21.399,0.668c-6.787-1.314-14.572-0.565-20.062,1.337c-6.889,12.057-8.938,28.955-12.036,44.803
		c4.112,1.915,11.395,4.2,12.036,7.355c-20.504-12.764-39.518,14.311-48.815,24.743c2.303,3.495,4.571,7.022,6.688,10.699
		c19.816-8.938,39.193-18.314,61.521-24.742C417.947,302.084,420.919,288.513,423.446,273.536z M441.5,349.768
		c5.457-4.062,14.457-8.21,17.388-12.705c2.3-3.527,3.046-11.6,5.349-18.056c2.1-5.878,4.762-11.762,6.688-16.717
		c5.52-14.181,12.718-24.963,14.043-41.459c0.735-9.151,3.422-21.829,6.688-32.767c2.374-7.949,10.413-24.628,8.692-30.092
		c-3.381-10.752-20.349-2.492-25.41,2.006c-14.021,12.463-23.159,38.724-24.073,62.19c6.748-1.408,15.035,0.859,16.718,6.688
		c-6.856-0.5-12.023-2.689-18.057-4.012c-11.244,14.389-17.202,34.064-24.741,52.159c1.861,1.706,5.2,1.933,4.681,6.018
		c-11.714-9.141-29.29,0.969-42.797,6.688c-5.441,2.305-10.616,4.468-15.38,6.687c-5.236,2.44-11.41,3.737-13.375,8.024
		c21.289,6.798,45.173,11,66.203,18.055C428.912,359.091,434.966,354.634,441.5,349.768z M550.501,365.817
		c0.134,2.542,0.591,4.758,1.337,6.687c9.202-4.173,21.421-5.328,27.417-12.706C570.932,350.669,559.403,363.269,550.501,365.817z"
		/>
	<path fill-rule="evenodd" clip-rule="evenodd" d="M180.036,167.88c-5.411,0.278-12.006-4.038-16.718-6.688
		C168.213,156.665,177.062,163.966,180.036,167.88z"/>
	<path fill-rule="evenodd" clip-rule="evenodd" d="M159.974,169.886c12.043,2.448,25.625,9.147,33.436,18.055
		C180.428,183.76,171.251,175.772,159.974,169.886z"/>
	<path fill-rule="evenodd" clip-rule="evenodd" d="M156.631,175.904c6.024,0.44,9.743,3.185,13.374,6.019
		C165.846,182.283,158.971,179.59,156.631,175.904z"/>
	<path fill-rule="evenodd" clip-rule="evenodd" d="M174.686,305.633c1.08-0.188,1.151,0.632,2.006,0.669
		c0.991,10.45,0.276,24.724-3.343,32.767C167.889,331.098,172.344,314.23,174.686,305.633z"/>
	<path fill-rule="evenodd" clip-rule="evenodd" d="M77.723,388.553c-6.007-6.029-2.68-21.392-12.037-24.073
		C76.667,355.621,82.796,378.681,77.723,388.553z"/>
	<path fill-rule="evenodd" clip-rule="evenodd" d="M63.011,377.854c-8.857,15.44-21.053,27.542-36.779,36.11
		c10.099-13.751,22.206-25.496,34.773-36.779C62.085,376.998,62.157,377.817,63.011,377.854z"/>
	<path fill-rule="evenodd" clip-rule="evenodd" d="M323.139,397.247c-14.668-3.608-34.577-1.978-49.483-5.35
		c-0.124-0.568,0.261-0.63,0.668-0.669C291.239,389.96,312.274,390.247,323.139,397.247z"/>
	<path fill-rule="evenodd" clip-rule="evenodd" d="M200.097,293.598c21.72,12.606,40.014,34.435,62.19,48.815
		C238.748,331.625,219.004,311.246,200.097,293.598z"/>
</g>
</svg>
